<?xml version="1.0" encoding="UTF-8"?>
<svg width="447px" height="90px" viewBox="0 0 447 90" version="1.1" xmlns="http://www.w3.org/2000/svg" xmlns:xlink="http://www.w3.org/1999/xlink">
    <!-- Generator: Sketch 46.2 (44496) - http://www.bohemiancoding.com/sketch -->
    <title>logo_knockout@1.5x</title>
    <desc>Created with Sketch.</desc>
    <defs></defs>
    <g id="Logo" stroke="none" stroke-width="1" fill="none" fill-rule="evenodd">
        <g id="logo_knockout">
            <g id="Group-2">
                <rect id="bg" fill="#ED217C" x="0" y="14" width="447" height="76"></rect>
                <path d="M67.2843111,78.6086957 L83.873374,78.6086957 L83.873374,1.27536232 L60.6718874,1.27536232 L41.8786833,49.5072464 L23.0854792,1.27536232 L0,1.27536232 L0,78.6086957 L16.4730555,78.6086957 L16.4730555,22.9565217 L38.2824529,78.6086957 L45.4749137,78.6086957 L67.2843111,22.9565217 L67.2843111,78.6086957 Z M95.4741173,40 C95.4741173,16.6956522 112.52721,0 135.844704,0 C159.278205,0 176.331298,16.6956522 176.331298,40 C176.331298,63.3043478 159.278205,80 135.844704,80 C112.52721,80 95.4741173,63.3043478 95.4741173,40 Z M159.394213,40 C159.394213,54.3768116 150.113618,65.3913043 135.844704,65.3913043 C121.57579,65.3913043 112.411203,54.3768116 112.411203,40 C112.411203,25.5072464 121.57579,14.6086957 135.844704,14.6086957 C150.113618,14.6086957 159.394213,25.5072464 159.394213,40 Z M265.579493,40 C265.579493,47.3392848 262.909219,53.1223501 259.818804,58.9389839 C259.206053,60.0922766 259.537368,62.2075761 258.814916,63.2816848 C251.936949,73.507533 240.176014,80 225.215948,80 C211.967768,80 197.626975,72.8898135 193.457489,65.2616493 C192.624703,63.7380495 191.157904,61.2336792 191.130694,59.8170017 C185.051238,57.1672414 185.051238,47.9293385 185.051238,40 C185.051238,28.5383278 189.010047,18.5036484 196.047168,11.351832 C197.193043,10.1872815 198.420537,10.0991688 199.72585,9.09377953 C206.372263,3.97452219 215.036245,0 225.215948,0 C228.083645,0 230.321936,0.103896922 232.927529,2.21630329 C233.938981,3.03630769 230.807011,10.5729686 231.959436,11.1139478 C233.143866,11.669951 234.123796,13.4405193 234.419818,15.0746257 C234.715841,16.708732 234.220188,18.31315 234.735631,19.6518837 C235.251073,20.9906174 238.561288,20.3502386 239.945992,21.8643966 C241.088502,23.1137183 241.416932,26.6968247 242.480659,27.5863809 C243.544387,28.4759371 247.330506,27.9647905 248.356706,28.6399658 C249.382906,29.3151411 250.802502,30.4249421 252.05037,31.6160508 C253.298238,32.8071594 262.128946,27.5772521 263.151473,29.7137913 C264.174,31.8503305 265.579493,37.7813183 265.579493,40 Z M322.616671,78.6086957 L342.917972,78.6086957 L310.087868,37.5652174 L340.829838,1.27536232 L320.528537,1.27536232 L293.150783,35.826087 L293.150783,1.27536232 L276.677728,1.27536232 L276.677728,78.6086957 L293.150783,78.6086957 L293.150783,54.8405797 L299.18317,47.6521739 L322.616671,78.6086957 Z M350.458455,78.6086957 L366.93151,78.6086957 L366.93151,1.27536232 L350.458455,1.27536232 L350.458455,78.6086957 Z M382.244492,78.6086957 L437,78.6086957 L437,64.3478261 L398.717547,64.3478261 L398.717547,46.3768116 L436.187948,46.3768116 L436.187948,32.2318841 L398.717547,32.2318841 L398.717547,15.4202899 L437,15.4202899 L437,1.27536232 L382.244492,1.27536232 L382.244492,78.6086957 Z" id="logo_mookie" fill="#FFFFFF"></path>
            </g>
        </g>
    </g>
</svg>