<?xml version="1.0" encoding="UTF-8"?>
<svg width="447px" height="90px" viewBox="0 0 447 90" version="1.1" xmlns="http://www.w3.org/2000/svg" xmlns:xlink="http://www.w3.org/1999/xlink">
    <!-- Generator: Sketch 46.2 (44496) - http://www.bohemiancoding.com/sketch -->
    <title>logo_knockout_pink</title>
    <desc>Created with Sketch.</desc>
    <defs></defs>
    <g id="Logo" stroke="none" stroke-width="1" fill="none" fill-rule="evenodd">
        <g id="logo_knockout_pink">
            <rect id="bg" fill="#ED217C" x="0" y="14" width="447" height="76"></rect>
            <path d="M67.2915446,78.6086957 L83.8823909,78.6086957 L83.8823909,1.27536232 L60.67841,1.27536232 L41.8831855,49.5072464 L23.087961,1.27536232 L0,1.27536232 L0,78.6086957 L16.4748264,78.6086957 L16.4748264,22.9565217 L38.2865685,78.6086957 L45.4798025,78.6086957 L67.2915446,22.9565217 L67.2915446,78.6086957 Z M95.4843813,40 C95.4843813,16.6956522 112.539307,0 135.859308,0 C159.295329,0 176.350255,16.6956522 176.350255,40 C176.350255,63.3043478 159.295329,80 135.859308,80 C112.539307,80 95.4843813,63.3043478 95.4843813,40 Z M159.411349,40 C159.411349,54.3768116 150.129756,65.3913043 135.859308,65.3913043 C121.58886,65.3913043 112.423287,54.3768116 112.423287,40 C112.423287,25.5072464 121.58886,14.6086957 135.859308,14.6086957 C150.129756,14.6086957 159.411349,25.5072464 159.411349,40 Z M265.608044,40 C265.608044,62.6484018 249.699518,80 225.24016,80 C200.780801,80 185.071132,62.6484018 185.071132,40 C185.071132,17.1689498 200.780801,0 225.24016,0 C228.108165,0 230.346697,0.103896922 232.95257,2.21630329 C233.964131,3.03630769 230.831824,10.5729686 231.984373,11.1139478 C233.16893,11.669951 234.148966,13.4405193 234.44502,15.0746257 C234.741074,16.708732 234.245368,18.31315 234.760866,19.6518837 C235.276364,20.9906174 238.586935,20.3502386 239.971788,21.8643966 C241.11442,23.1137183 241.442885,26.6968247 242.506727,27.5863809 C243.57057,28.4759371 247.357095,27.9647905 248.383406,28.6399658 C249.409716,29.3151411 250.829465,30.4249421 252.077467,31.6160508 C253.325469,32.8071594 262.157126,27.5772521 263.179763,29.7137913 C264.2024,31.8503305 265.608044,37.7813183 265.608044,40 Z M322.651354,78.6086957 L342.954837,78.6086957 L310.121204,37.5652174 L340.866479,1.27536232 L320.562996,1.27536232 L293.182298,35.826087 L293.182298,1.27536232 L276.707472,1.27536232 L276.707472,78.6086957 L293.182298,78.6086957 L293.182298,54.8405797 L299.215333,47.6521739 L322.651354,78.6086957 Z M350.496131,78.6086957 L366.970958,78.6086957 L366.970958,1.27536232 L350.496131,1.27536232 L350.496131,78.6086957 Z M382.285585,78.6086957 L437.04698,78.6086957 L437.04698,64.3478261 L398.760411,64.3478261 L398.760411,46.3768116 L436.234841,46.3768116 L436.234841,32.2318841 L398.760411,32.2318841 L398.760411,15.4202899 L437.04698,15.4202899 L437.04698,1.27536232 L382.285585,1.27536232 L382.285585,78.6086957 Z" id="logo_mookie" fill="#FFFFFF"></path>
        </g>
    </g>
</svg>